<svg xmlns="http://www.w3.org/2000/svg" viewBox="0 0 189.75 174"><defs><style>.cls-1{fill:#b6a25c;}.cls-2{fill:#e0b96d;}.cls-3{fill:#cba863;}.cls-4{fill:#fff;}</style></defs><title>goldFichier 3</title><g id="Calque_2" data-name="Calque 2"><g id="Calque_1-2" data-name="Calque 1"><circle class="cls-1" cx="86.87" cy="87.13" r="86.87"/><circle class="cls-2" cx="96.25" cy="87.13" r="86.87"/><rect class="cls-1" x="52.31" y="108.29" width="28.8" height="24.2"/><rect class="cls-1" x="116.11" y="108.09" width="28.8" height="24.2"/><path class="cls-1" d="M98.81,39.49A46.48,46.48,0,0,0,52.31,86v17.8h28.8V86H81a17.9,17.9,0,0,1,35.8,0h-.1v17.8h28.6V86A46.48,46.48,0,0,0,98.81,39.49Z"/><rect class="cls-3" x="47.2" y="108.29" width="28.8" height="24.2"/><rect class="cls-3" x="111" y="108.09" width="28.8" height="24.2"/><path class="cls-3" d="M93.7,39.49A46.48,46.48,0,0,0,47.2,86v17.8H76V86h-.1a17.9,17.9,0,0,1,35.8,0h-.1v17.8h28.6V86A46.48,46.48,0,0,0,93.7,39.49Z"/><path class="cls-4" d="M141.25,0c-5.67,26.08-7.5,27.5-53.93,31,53.43.5,54.1-5.23,55.93,41-1.83-46.23-1.83-46.23,46.5-45.84C130.75,27.5,141.25,0,141.25,0Z"/></g></g></svg>