<svg xmlns="http://www.w3.org/2000/svg" viewBox="0 0 190.25 174.74"><defs><style>.cls-1{fill:#92a1ab;stroke:#95a4ad;stroke-miterlimit:10;}.cls-2{fill:#dce5e9;}.cls-3{fill:#a9b3b9;}.cls-4{fill:#c8d3d9;}.cls-5{fill:#fff;}</style></defs><title>silverFichier 2</title><g id="Calque_2" data-name="Calque 2"><g id="Calque_1-2" data-name="Calque 1"><circle class="cls-1" cx="87.37" cy="87.37" r="86.87"/><circle class="cls-2" cx="96.75" cy="87.37" r="86.87"/><rect class="cls-3" x="52.81" y="108.53" width="28.8" height="24.2"/><rect class="cls-3" x="116.61" y="108.33" width="28.8" height="24.2"/><path class="cls-3" d="M99.31,39.73a46.48,46.48,0,0,0-46.5,46.5V104h28.8V86.23h-.1a17.9,17.9,0,0,1,35.8,0h-.1V104h28.6V86.23A46.48,46.48,0,0,0,99.31,39.73Z"/><rect class="cls-4" x="47.7" y="108.53" width="28.8" height="24.2"/><rect class="cls-4" x="111.5" y="108.33" width="28.8" height="24.2"/><path class="cls-4" d="M94.2,39.73a46.48,46.48,0,0,0-46.5,46.5V104H76.5V86.23h-.1a17.9,17.9,0,0,1,35.8,0h-.1V104h28.6V86.23A46.48,46.48,0,0,0,94.2,39.73Z"/><path class="cls-5" d="M141.75.24c-5.67,26.08-7.5,27.5-53.93,31,53.43.5,54.1-5.23,55.93,41C141.92,26,141.92,26,190.25,26.4,131.25,27.74,141.75.24,141.75.24Z"/></g></g></svg>