<?xml version="1.0" encoding="utf-8"?>
<!-- Generator: Adobe Illustrator 22.0.1, SVG Export Plug-In . SVG Version: 6.00 Build 0)  -->
<svg version="1.1" id="Calque_1" xmlns="http://www.w3.org/2000/svg" xmlns:xlink="http://www.w3.org/1999/xlink" x="0px" y="0px"
	 viewBox="0 0 113.6 113.6" style="enable-background:new 0 0 113.6 113.6;" xml:space="preserve">
<style type="text/css">
	.st0{fill:none;}
	.st1{display:none;}
	.st2{display:inline;fill:url(#magnet-2_1_);}
	.st3{display:none;stroke:#000000;stroke-width:4;stroke-linecap:round;stroke-linejoin:round;stroke-miterlimit:10;}
	.st4{display:none;stroke:#000000;stroke-width:3;stroke-linecap:round;stroke-linejoin:round;stroke-miterlimit:10;}
	.st5{stroke:#000000;stroke-width:2;stroke-linecap:round;stroke-linejoin:round;stroke-miterlimit:10;}
</style>
<pattern  y="113.6" width="93" height="93" patternUnits="userSpaceOnUse" id="pattern" viewBox="0 -93 93 93" style="overflow:visible;">
	<g>
		<rect x="0" y="-93" class="st0" width="93" height="93"/>
		
			<image style="overflow:visible;enable-background:new    ;" width="93" height="93" xlink:href="DCEA139D.png"  transform="matrix(1 0 0 -1 0 0)">
		</image>
	</g>
</pattern>
<g transform="matrix(1, 0, 0, 1, 0, 0)" class="st1">
	
		<pattern  id="magnet-2_1_" xlink:href="#pattern" patternTransform="matrix(0.6518 -0.3763 -0.3763 -0.6518 -5911.0371 -17480.0156)">
	</pattern>
	<path id="magnet-2" class="st2" d="M-9.3,11.6l60.6-35l35,60.6l-60.6,35L-9.3,11.6z"/>
</g>
<path class="st1" d="M67.4,30.8C52,22.9,33.2,29,25.3,44.3s-1.9,34.2,13.5,42c15.3,7.9,34.2,1.9,42-13.5S82.7,38.7,67.4,30.8z
	 M42.2,79.8c-11.7-6-16.3-20.4-10.3-32.1S52.3,31.4,64,37.4s16.3,20.4,10.3,32.1C68.2,81.2,53.9,85.8,42.2,79.8z"/>
<rect x="57.1" y="22.9" transform="matrix(0.8891 0.4578 -0.4578 0.8891 27.095 -22.6577)" class="st3" width="6.5" height="43.4"/>
<path class="st1" d="M103.5,72.8V20.5h-92v52.3h23.3v5.8H25V82h65v-3.5h-8.8v-5.8H103.5z M18.8,66.5V25.8H97v40.8H18.8z"/>
<rect x="21.3" y="44" transform="matrix(0.9105 0.4136 -0.4136 0.9105 24.226 -19.6517)" class="st4" width="72.5" height="4.3"/>
<rect x="21.6" y="44.2" transform="matrix(0.8957 -0.4447 0.4447 0.8957 -14.5498 30.5638)" class="st4" width="72.5" height="4.3"/>
<rect x="58.5" y="61.8" class="st5" width="40.8" height="4.5"/>
<polygon class="st5" points="109.8,64.1 102.1,68.5 94.4,73 94.4,64.1 94.4,55.2 102.1,59.6 "/>
<path class="st5" d="M36.8,29.2v71h48.4v-71H36.8z M79.7,93.2H41.5v-56h38.2V93.2z"/>
</svg>
