<?xml version="1.0" encoding="utf-8"?>
<!-- Generator: Adobe Illustrator 22.0.1, SVG Export Plug-In . SVG Version: 6.00 Build 0)  -->
<svg version="1.1" id="Calque_1" xmlns="http://www.w3.org/2000/svg" xmlns:xlink="http://www.w3.org/1999/xlink" x="0px" y="0px"
	 viewBox="0 0 113.6 113.6" style="enable-background:new 0 0 113.6 113.6;" xml:space="preserve">
<style type="text/css">
	.st0{fill:none;}
	.st1{display:none;}
	.st2{display:inline;fill:url(#magnet-2_1_);}
</style>
<pattern  y="113.6" width="93" height="93" patternUnits="userSpaceOnUse" id="pattern" viewBox="0 -93 93 93" style="overflow:visible;">
	<g>
		<rect x="0" y="-93" class="st0" width="93" height="93"/>
		
			<image style="overflow:visible;enable-background:new    ;" width="93" height="93" xlink:href="AAB32F19.png"  transform="matrix(1 0 0 -1 0 0)">
		</image>
	</g>
</pattern>
<g transform="matrix(1, 0, 0, 1, 0, 0)" class="st1">
	
		<pattern  id="magnet-2_1_" xlink:href="#pattern" patternTransform="matrix(0.6518 -0.3763 -0.3763 -0.6518 -5911.0371 -17480.0156)">
	</pattern>
	<path id="magnet-2" class="st2" d="M-9.3,11.6l60.6-35l35,60.6l-60.6,35L-9.3,11.6z"/>
</g>
<g>
	<path d="M78,31.9L78,31.9c0-0.2-0.1-0.3-0.2-0.4l-0.3-0.6L77.3,31c-6.4-7.8-16.1-12.8-27-12.8c-19.3,0-35,15.7-35,35
		c0,4.3,0.8,8.5,2.2,12.3l-0.1,0.1l0.6,1c0,0,0,0,0,0.1l0,0l9,15.7l19.6-11.3l-9-15.7l0,0c-0.1-0.8-0.2-1.5-0.2-2.3
		c0-7.3,5.9-13.2,13.2-13.2c2.8,0,5.4,0.9,7.5,2.3l-0.2,0.1l9.6,16.7L87,47.6L78,31.9z"/>
	<rect x="32" y="79.5" transform="matrix(0.866 -0.5 0.5 0.866 -38.1433 33.4524)" width="22.7" height="16.8"/>
	<rect x="73.7" y="55.6" transform="matrix(0.866 -0.5 0.5 0.866 -20.6815 50.9137)" width="21.9" height="16.8"/>
</g>
</svg>
