<svg xmlns="http://www.w3.org/2000/svg" viewBox="0 0 571.98 600"><defs><style>.cls-1{fill:#289447;}</style></defs><title>canvasmap_1</title><g id="Calque_2" data-name="Calque 2"><g id="Calque_1-2" data-name="Calque 1"><circle class="cls-1" cx="295.55" cy="304.16" r="69.71"/><path class="cls-1" d="M454.87,164.88a48.93,48.93,0,0,0-47.64,37.8H333.48v69.49h20.31V223.69H407a48.92,48.92,0,1,0,47.92-58.81Z"/><path class="cls-1" d="M343.81,116a48.92,48.92,0,1,0-59.16,47.84v80.37h21v-80.5A48.92,48.92,0,0,0,343.81,116Z"/><path class="cls-1" d="M246,265.52H162a48.92,48.92,0,1,0,.12,21H246Z"/><path class="cls-1" d="M256.12,352.16V331.33H180.33v105.5A48.94,48.94,0,1,0,201,437V352.16Z"/><path class="cls-1" d="M431,402.39V331.86H325.08v20.65h85.07v50a48.9,48.9,0,1,0,20.83-.16Z"/><circle class="cls-1" cx="28.49" cy="276.28" r="28.49"/><circle class="cls-1" cx="44.57" cy="218.52" r="20.77"/><circle class="cls-1" cx="44.57" cy="334.04" r="20.77"/><circle class="cls-1" cx="84.43" cy="370.83" r="20.77"/><circle class="cls-1" cx="84.43" cy="181.74" r="20.77"/><circle class="cls-1" cx="189.87" cy="571.51" r="28.49"/><circle class="cls-1" cx="132.11" cy="555.43" r="20.77"/><circle class="cls-1" cx="247.63" cy="555.43" r="20.77"/><circle class="cls-1" cx="284.41" cy="515.58" r="20.77"/><circle class="cls-1" cx="95.33" cy="515.58" r="20.77"/><circle class="cls-1" cx="420.49" cy="535.31" r="28.49"/><circle class="cls-1" cx="362.73" cy="519.22" r="20.77"/><circle class="cls-1" cx="478.25" cy="519.22" r="20.77"/><circle class="cls-1" cx="515.03" cy="479.37" r="20.77"/><circle class="cls-1" cx="325.95" cy="479.37" r="20.77"/><circle class="cls-1" cx="543.5" cy="218.52" r="28.49"/><circle class="cls-1" cx="527.41" cy="276.28" r="20.77"/><circle class="cls-1" cx="527.41" cy="160.76" r="20.77"/><circle class="cls-1" cx="487.56" cy="123.98" r="20.77"/><circle class="cls-1" cx="487.56" cy="313.07" r="20.77"/><circle class="cls-1" cx="297.5" cy="28.49" r="28.49"/><circle class="cls-1" cx="355.26" cy="44.57" r="20.77"/><circle class="cls-1" cx="239.74" cy="44.57" r="20.77"/><circle class="cls-1" cx="202.95" cy="84.43" r="20.77"/><circle class="cls-1" cx="392.04" cy="84.43" r="20.77"/></g></g></svg>